<?xml version="1.0" encoding="utf-8"?>
<!-- Generator: Adobe Illustrator 26.1.0, SVG Export Plug-In . SVG Version: 6.00 Build 0)  -->
<svg version="1.1" id="Layer_1" xmlns="http://www.w3.org/2000/svg" xmlns:xlink="http://www.w3.org/1999/xlink" x="0px" y="0px"
	 viewBox="0 0 368 110" style="enable-background:new 0 0 368 110;" xml:space="preserve">
<style type="text/css">
	.st0{fill-rule:evenodd;clip-rule:evenodd;fill-opacity:0.24;}
	.st1{fill-rule:evenodd;clip-rule:evenodd;fill:#008EAA;}
	.st2{fill-rule:evenodd;clip-rule:evenodd;}
</style>
<path class="st0" d="M0,4.7l65.1,4.9L96,7.2L0,0V4.7z M0,33.5l65.1,4.9L96,36.1l-65.1-4.9L0,33.5z M65.1,24L0,19.1l30.9-2.3L96,21.7
	L65.1,24z"/>
<path class="st1" d="M0,19.1v-4.7l96-7.2v4.7L0,19.1z M0,28.9v4.7l96-7.2v-4.7L0,28.9z M0,43.3V48l96-7.2v-4.7L0,43.3z"/>
<g>
	<path class="st2" d="M91.8,65.3c-3.5,0-6.6,1.2-8.6,3.2c-2.1,2-3.3,4.8-3.3,7.9c0,3.1,1.3,6,3.4,7.9c1,1,2.3,1.8,3.8,2.3
		c1.5,0.6,3,0.9,4.7,0.9c3.5,0,6.6-1.2,8.7-3.2s3.3-4.8,3.3-7.9c0-3.1-1.3-6-3.4-7.9C98.2,66.5,95.1,65.3,91.8,65.3z M86.9,81.2
		c-1.3-1.2-1.9-2.9-1.9-4.8c0-2,0.6-3.6,1.9-4.8c1.3-1.2,2.9-1.8,4.8-1.8c2,0,3.6,0.6,4.9,1.9c1.3,1.2,1.9,2.8,1.9,4.8
		c0,2-0.6,3.6-1.9,4.8c-1.3,1.2-2.9,1.8-4.9,1.8C89.8,83,88.2,82.4,86.9,81.2z"/>
	<path class="st2" d="M25.1,87.1l9.6-21.7h4.4l9.6,21.7h-5.4l-1.9-4.4h-9.1l-1.9,4.4H25.1z M34,78.7h5.8l-2.9-6.9h-0.1L34,78.7z"/>
	<path d="M16.5,78.6V65.6h4.9v21.6h-4.3L5.7,73.4H5.6v13.7H0.7V65.6h4.9L16.5,78.6L16.5,78.6z"/>
	<path d="M355.4,99.1v10.7h-2.6V94.9h2.7l4.9,6.7l4.9-6.7h2.7v14.9h-2.7V99.1h0l-4.8,6.6h-0.2L355.4,99.1L355.4,99.1z"/>
	<path d="M338.4,108.3c-1.1-1.1-1.7-2.6-1.7-4.6h0v-8.8h2.6v8.8c0,1.2,0.3,2.2,1,2.9c0.6,0.7,1.5,1.1,2.7,1.1c1.1,0,2-0.4,2.7-1.1
		c0.7-0.7,1-1.7,1-2.9v-8.8h2.6v8.8c0,1.9-0.6,3.5-1.7,4.6c-1.1,1.1-2.7,1.7-4.6,1.7C341,110,339.5,109.4,338.4,108.3z"/>
	<path d="M333.8,107.4v2.3H323V94.9h10.6v2.3h-8v3.7h7.1v2.3h-7.1v4.2H333.8z"/>
	<path d="M311.3,109.5c-1-0.4-1.8-0.9-2.5-1.5l1.8-1.9c0.4,0.4,1,0.8,1.7,1.1c0.7,0.3,1.4,0.5,2.1,0.5c1,0,1.8-0.2,2.5-0.8
		c0.3-0.3,0.4-0.7,0.4-1.1c0-0.5-0.2-1-0.7-1.3c-0.5-0.3-1.2-0.6-2.2-0.9c-1.2-0.3-2-0.6-2.9-1.1c-0.5-0.3-0.9-0.5-1.2-0.8
		c-0.6-0.6-1-1.5-1-2.6c0-1.8,1-3.1,2.6-3.8c0.8-0.3,1.7-0.5,2.7-0.5c1.9,0,3.8,0.6,4.9,1.8l-1.6,1.8c-0.4-0.4-0.9-0.7-1.5-0.9
		c-0.6-0.3-1.2-0.4-1.8-0.4c-0.7,0-1.3,0.2-1.8,0.5c-0.5,0.3-0.7,0.8-0.7,1.4c0,0.6,0.3,1,0.8,1.4c0.5,0.4,1.4,0.7,2.6,1
		c3.1,0.8,4.6,2.2,4.6,4.3c0,3-2.7,4.5-5.6,4.5C313.3,110,312.3,109.8,311.3,109.5z"/>
	<path d="M295.3,108.3c-1.1-1.1-1.7-2.6-1.7-4.6h0v-8.8h2.6v8.8c0,1.2,0.3,2.2,1,2.9c0.6,0.7,1.5,1.1,2.7,1.1c1.1,0,2-0.4,2.7-1.1
		c0.7-0.7,1-1.7,1-2.9v-8.8h2.6v8.8c0,1.9-0.6,3.5-1.7,4.6c-1.1,1.1-2.7,1.7-4.6,1.7C297.9,110,296.4,109.4,295.3,108.3z"/>
	<path d="M277.4,99.1v10.7h-2.6V94.9h2.7l4.9,6.7l4.9-6.7h2.7v14.9h-2.7V99.1h0l-4.8,6.6h-0.2L277.4,99.1L277.4,99.1z"/>
	<path d="M256.6,109.5c-1-0.4-1.8-0.9-2.5-1.5l1.8-1.9c0.4,0.4,1,0.8,1.7,1.1c0.7,0.3,1.4,0.5,2.1,0.5c1,0,1.8-0.2,2.5-0.8
		c0.3-0.3,0.4-0.7,0.4-1.1c0-0.5-0.2-1-0.7-1.3c-0.5-0.3-1.2-0.6-2.2-0.9c-1.2-0.3-2-0.6-2.9-1.1c-0.5-0.3-0.9-0.5-1.2-0.8
		c-0.6-0.6-1-1.5-1-2.6c0-1.8,1-3.1,2.6-3.8c0.8-0.3,1.7-0.5,2.7-0.5c1.9,0,3.8,0.6,4.9,1.8l-1.6,1.8c-0.4-0.4-0.9-0.7-1.5-0.9
		c-0.6-0.3-1.2-0.4-1.8-0.4c-0.7,0-1.3,0.2-1.8,0.5c-0.5,0.3-0.7,0.8-0.7,1.4c0,0.6,0.3,1,0.8,1.4c0.5,0.4,1.4,0.7,2.6,1
		c3.1,0.8,4.6,2.2,4.6,4.3c0,3-2.7,4.5-5.6,4.5C258.6,110,257.6,109.8,256.6,109.5z"/>
	<path class="st2" d="M238.3,107.8c-0.7-0.7-1.3-1.5-1.7-2.4c-0.4-0.9-0.6-1.9-0.6-3s0.2-2.1,0.6-3c0.4-0.9,0.9-1.7,1.6-2.4
		c1.4-1.4,3.5-2.2,5.8-2.2c1.1,0,2.2,0.2,3.2,0.6c1,0.4,1.8,0.9,2.6,1.6c1.4,1.4,2.3,3.3,2.3,5.4c0,2.1-0.8,4-2.2,5.4
		c-1.4,1.4-3.5,2.2-5.8,2.2c-1.1,0-2.2-0.2-3.2-0.6C239.8,109,239,108.5,238.3,107.8z M240.2,98.6c-1,1-1.5,2.3-1.5,3.8
		c0,1.5,0.5,2.8,1.5,3.8c1,1,2.3,1.5,3.8,1.5s2.8-0.5,3.8-1.5c1-1,1.5-2.3,1.5-3.8c0-1.5-0.5-2.8-1.5-3.8c-1-1-2.3-1.5-3.8-1.5
		C242.5,97.1,241.2,97.6,240.2,98.6z"/>
	<path d="M225.1,109.5c-1-0.4-1.8-0.9-2.5-1.5l1.8-1.9c0.4,0.4,1,0.8,1.7,1.1c0.7,0.3,1.4,0.5,2.1,0.5c1,0,1.9-0.2,2.5-0.8
		c0.3-0.3,0.4-0.7,0.4-1.1c0-0.5-0.2-1-0.7-1.3c-0.5-0.3-1.2-0.6-2.2-0.9c-1.2-0.3-2-0.6-2.9-1.1c-0.5-0.3-0.9-0.5-1.2-0.8
		c-0.6-0.6-1-1.5-1-2.6c0-1.8,1-3.1,2.6-3.8c0.8-0.3,1.7-0.5,2.7-0.5c1.9,0,3.8,0.6,4.9,1.8l-1.6,1.8c-0.4-0.4-0.9-0.7-1.5-0.9
		c-0.6-0.3-1.2-0.4-1.8-0.4c-0.7,0-1.3,0.2-1.8,0.5c-0.5,0.3-0.7,0.8-0.7,1.4c0,0.6,0.3,1,0.8,1.4c0.5,0.4,1.4,0.7,2.6,1
		c3.1,0.8,4.6,2.2,4.6,4.3c0,3-2.7,4.5-5.6,4.5C227.1,110,226.1,109.8,225.1,109.5z"/>
	<path d="M213.8,109.8V97.3h-4.6v-2.4h11.9v2.4h-4.6v12.5H213.8z"/>
	<path d="M196,108.3c-1.1-1.1-1.7-2.6-1.7-4.6h0v-8.8h2.6v8.8c0,1.2,0.3,2.2,1,2.9c0.6,0.7,1.5,1.1,2.7,1.1c1.1,0,2-0.4,2.7-1.1
		c0.7-0.7,1-1.7,1-2.9v-8.8h2.6v8.8c0,1.9-0.6,3.5-1.7,4.6c-1.1,1.1-2.7,1.7-4.6,1.7C198.7,110,197.1,109.4,196,108.3z"/>
	<path class="st2" d="M177.6,107.8c-0.7-0.7-1.3-1.5-1.7-2.4c-0.4-0.9-0.6-1.9-0.6-3s0.2-2.1,0.6-3c0.4-0.9,0.9-1.7,1.6-2.4
		c1.4-1.4,3.5-2.2,5.8-2.2c1.1,0,2.2,0.2,3.2,0.6c1,0.4,1.8,0.9,2.6,1.6c1.4,1.4,2.3,3.3,2.3,5.4c0,2.1-0.8,4-2.2,5.4
		c-1.4,1.4-3.5,2.2-5.8,2.2c-1.1,0-2.2-0.2-3.2-0.6C179.2,109,178.3,108.5,177.6,107.8z M179.6,98.6c-1,1-1.5,2.3-1.5,3.8
		c0,1.5,0.5,2.8,1.5,3.8c1,1,2.3,1.5,3.8,1.5s2.8-0.5,3.8-1.5c1-1,1.5-2.3,1.5-3.8c0-1.5-0.5-2.8-1.5-3.8c-1-1-2.3-1.5-3.8-1.5
		C181.9,97.1,180.6,97.6,179.6,98.6z"/>
	<path d="M164.5,109.5c-1-0.4-1.8-0.9-2.5-1.5l1.8-1.9c0.4,0.4,1,0.8,1.7,1.1c0.7,0.3,1.4,0.5,2.1,0.5c1,0,1.8-0.2,2.5-0.8
		c0.3-0.3,0.4-0.7,0.4-1.1c0-0.5-0.2-1-0.7-1.3c-0.5-0.3-1.2-0.6-2.2-0.9c-1.2-0.3-2-0.6-2.9-1.1c-0.5-0.3-0.9-0.5-1.2-0.8
		c-0.6-0.6-1-1.5-1-2.6c0-1.8,1-3.1,2.6-3.8c0.8-0.3,1.7-0.5,2.7-0.5c1.9,0,3.8,0.6,4.9,1.8l-1.6,1.8c-0.4-0.4-0.9-0.7-1.5-0.9
		c-0.6-0.3-1.2-0.4-1.8-0.4c-0.7,0-1.3,0.2-1.8,0.5c-0.5,0.3-0.7,0.8-0.7,1.4c0,0.6,0.3,1,0.8,1.4c0.5,0.4,1.4,0.7,2.6,1
		c3.1,0.8,4.6,2.2,4.6,4.3c0,3-2.7,4.5-5.6,4.5C166.5,110,165.4,109.8,164.5,109.5z"/>
	<path d="M144.7,109.5c-1-0.4-1.8-0.9-2.5-1.5l1.8-1.9c0.4,0.4,1,0.8,1.7,1.1c0.7,0.3,1.4,0.5,2.1,0.5c1,0,1.9-0.2,2.5-0.8
		c0.3-0.3,0.4-0.7,0.4-1.1c0-0.5-0.2-1-0.7-1.3c-0.5-0.3-1.2-0.6-2.2-0.9c-1.2-0.3-2-0.6-2.9-1.1c-0.5-0.3-0.9-0.5-1.2-0.8
		c-0.6-0.6-1-1.5-1-2.6c0-1.8,1-3.1,2.6-3.8c0.8-0.3,1.7-0.5,2.7-0.5c1.9,0,3.8,0.6,4.9,1.8l-1.6,1.8c-0.4-0.4-0.9-0.7-1.5-0.9
		c-0.6-0.3-1.2-0.4-1.8-0.4c-0.7,0-1.3,0.2-1.8,0.5c-0.5,0.3-0.7,0.8-0.7,1.4c0,0.6,0.3,1,0.8,1.4c0.5,0.4,1.4,0.7,2.6,1
		c3.1,0.8,4.6,2.2,4.6,4.3c0,3-2.7,4.5-5.6,4.5C146.7,110,145.7,109.8,144.7,109.5z"/>
	<path class="st2" d="M126.4,107.8c-0.7-0.7-1.3-1.5-1.7-2.4c-0.4-0.9-0.6-1.9-0.6-3s0.2-2.1,0.6-3c0.4-0.9,0.9-1.7,1.6-2.4
		c1.4-1.4,3.5-2.2,5.8-2.2c1.1,0,2.2,0.2,3.2,0.6c1,0.4,1.8,0.9,2.6,1.6c1.4,1.4,2.3,3.3,2.3,5.4c0,2.1-0.8,4-2.2,5.4
		c-1.4,1.4-3.5,2.2-5.8,2.2c-1.1,0-2.2-0.2-3.2-0.6C128,109,127.1,108.5,126.4,107.8z M128.4,98.6c-1,1-1.5,2.3-1.5,3.8
		c0,1.5,0.5,2.8,1.5,3.8c1,1,2.3,1.5,3.8,1.5c1.5,0,2.8-0.5,3.8-1.5c1-1,1.5-2.3,1.5-3.8c0-1.5-0.5-2.8-1.5-3.8
		c-1-1-2.3-1.5-3.8-1.5S129.4,97.6,128.4,98.6z"/>
	<path class="st2" d="M113.1,103.8v6h-2.6V94.9h5.3c1.7,0,3.1,0.4,4.1,1.1c1,0.8,1.5,1.8,1.5,3.3c0,2.2-1.3,3.6-3.3,4.1l4,6.3h-2.9
		l-3.7-6H113.1z M115.7,97.1h-2.5v4.5h2.6c1.9,0,3-0.7,3-2.3C118.7,97.8,117.6,97.1,115.7,97.1z"/>
	<path class="st2" d="M105,107.8c-1.5,1.3-3.7,2-6.1,2h-5.1V94.9h5.1c2.4,0,4.6,0.7,6.1,2c1.5,1.3,2.4,3.2,2.4,5.4
		C107.4,104.6,106.5,106.5,105,107.8z M98.8,97.3h-2.4v10.2h2.5c1.7,0,3.1-0.5,4.2-1.4c1.1-0.9,1.6-2.2,1.6-3.7
		c0-1.6-0.5-2.8-1.6-3.7C102,97.7,100.6,97.3,98.8,97.3z"/>
	<path d="M78.8,99.1v10.7h-2.6V94.9h2.6l8.5,10.3h0.1V94.9h2.6v14.9h-2.2L78.8,99.1L78.8,99.1z"/>
	<path class="st2" d="M62.4,106.3l-1.5,3.5h-2.8l6.7-14.9h2.4l6.6,14.9h-2.9l-1.5-3.5H62.4z M66,98.1L66,98.1l-2.7,6.1h5.2L66,98.1z
		"/>
	<path d="M50.3,104.2l-3.9,5.7h-3l5.5-7.6l-5.2-7.3h3.1l3.6,5.2l3.6-5.2h3l-5.2,7.2l5.5,7.7h-3.1L50.3,104.2z"/>
	<path d="M41.5,107.4v2.3H30.7V94.9h10.6v2.3h-8v3.7h7.1v2.3h-7.1v4.2H41.5z"/>
	<path d="M28.1,107.4v2.4h-10V94.9h2.6v12.5H28.1z"/>
	<path class="st2" d="M4.3,106.3l-1.5,3.5H0l6.7-14.9h2.4l6.6,14.9h-2.9l-1.5-3.5H4.3z M7.9,98.1L7.9,98.1l-2.7,6.1h5.2L7.9,98.1z"
		/>
	<path d="M47.9,65.6V70h6.4v17.1h5V70h6.4v-4.4H47.9z"/>
	<path d="M74.8,65.6h-5v21.6h5V65.6z"/>
	<path d="M108.7,87.1V65.6h4.9l10.8,13.1h0.1V65.6h4.9v21.6h-4.3l-11.4-13.7h-0.1v13.7H108.7z"/>
	<path class="st2" d="M142.7,65.5l-9.6,21.7h5.3l1.9-4.4h9.1l1.9,4.4h5.4l-9.6-21.7H142.7z M147.7,78.7H142l2.9-6.9h0.1L147.7,78.7z
		"/>
	<path d="M160.4,87.1V65.6h4.9v17.1h10.1v4.5H160.4z"/>
	<path d="M201.3,65.3c-3.5,0-6.5,1.2-8.6,3.2c-2,2-3.2,4.8-3.3,7.9c0,2.1,0.5,4,1.4,5.6c0.9,1.7,2.3,3,4.1,4c1.8,1,3.8,1.5,6.1,1.5
		c1.7,0,3.2-0.2,4.6-0.6c1.4-0.4,2.9-1,4.5-1.8V74.4h-8.8v4.1h4v3.6c-1.2,0.6-2.6,0.9-4.3,0.9c-1.8,0-3.3-0.6-4.6-1.9
		c-1.2-1.2-1.9-2.8-1.9-4.8c0-4,3-6.7,6.6-6.7c1.2,0,2.1,0.2,2.7,0.5c0.7,0.3,1.4,0.9,2.2,1.6l3.3-3.4c-1.2-1.1-2.4-1.8-3.7-2.4
		C204.5,65.5,203,65.3,201.3,65.3z"/>
	<path class="st2" d="M213.1,87.1l9.6-21.7h4.4l9.6,21.7h-5.4l-1.9-4.4h-9.1l-1.9,4.4H213.1z M221.9,78.7h5.8l-2.9-6.9h-0.1
		L221.9,78.7z"/>
	<path d="M240.4,65.6v21.6h15v-4.5h-10.1V65.6H240.4z"/>
	<path d="M259.8,87.1V65.6h4.9v17.1h10.1v4.5H259.8z"/>
	<path d="M279.2,65.6v21.6h16.2v-4.4h-11.2v-4.5h9.7v-4.3h-9.7V70h10.9v-4.4H279.2z"/>
	<path class="st2" d="M300.5,65.6h8.1c4.6,0,8.5,2,8.5,6.7c0,3-1.6,5-4.2,6l5.5,8.9h-5.6l-4.9-8.2h-2.6v8.2h-5V65.6z M305.5,74.9
		h3.1c1.7,0,3.4-0.6,3.4-2.6c0-1-0.4-1.7-1-2.1c-0.7-0.3-1.4-0.5-2.4-0.5h-3V74.9z"/>
	<path d="M325.4,65.6h-6l8.2,12.8v8.8h5v-8.8l8.2-12.8H335l-4.8,8h-0.1L325.4,65.6z"/>
</g>
</svg>
